Coordinates
version=1
nRows=22
nColumns=24
inDegrees=yes

Units are S.I. units (second, meters, Newtons, ...)
Angles are in degrees.

endheader
time	pelvis_tilt	pelvis_list	pelvis_rotation	pelvis_tx	pelvis_ty	pelvis_tz	hip_flexion_r	hip_adduction_r	hip_rotation_r	knee_angle_r	ankle_angle_r	subtalar_angle_r	mtp_angle_r	hip_flexion_l	hip_adduction_l	hip_rotation_l	knee_angle_l	ankle_angle_l	subtalar_angle_l	mtp_angle_l	lumbar_extension	lumbar_bending	lumbar_rotation
      0.72800000	      6.77195804	     -3.43434387	      2.20376229	     -0.45369678	      1.02391221	      0.30045891	      0.08353590	      6.18181477	     -1.11396767	    -15.73294158	      9.17130123	     -8.03800820	     -0.89741776	      4.00046066	     -3.89819049	      0.05465108	    -66.16168036	     -7.84566745	     -3.55076838	      4.66649986	    -21.89035634	     11.12259632	     -0.05956603
      0.73216667	      6.78051637	     -3.23402508	      2.28076379	     -0.44867021	      1.02475478	      0.30054212	     -0.42111996	      6.00417397	     -1.12843196	    -15.37570954	      9.19193604	     -8.08397302	     -0.91735598	      4.55551353	     -3.70045658	      0.10086339	    -66.16359569	     -7.19800219	     -3.91894415	      4.60156599	    -21.92252572	     10.85319717	      0.01784125
      0.73633333	      6.81019645	     -3.02050246	      2.35877226	     -0.44364453	      1.02562045	      0.30061794	     -0.96141824	      5.81561862	     -1.12867189	    -14.99070794	      9.18741119	     -8.16381580	     -0.94606026	      5.07086973	     -3.48451668	      0.14644766	    -66.08740920	     -6.58137597	     -4.29051118	      4.51224083	    -21.98849220	     10.54733924	      0.17362619
      0.74050000	      6.85822952	     -2.80143694	      2.41779126	     -0.43858866	      1.02653690	      0.30072501	     -1.54832181	      5.62843075	     -1.07106609	    -14.55066132	      9.16191481	     -8.30402687	     -1.00216888	      5.54024637	     -3.26582216	      0.16588507	    -65.92447755	     -5.99721083	     -4.64908268	      4.33254064	    -22.06820455	     10.23098200	      0.44211979
      0.74466667	      6.84322801	     -2.58513928	      2.47634630	     -0.43357653	      1.02732081	      0.30080597	     -2.02669577	      5.43358857	     -1.07474441	    -14.19276845	      9.15166156	     -8.36304135	     -1.02976096	      6.07998428	     -3.04606248	      0.17995912	    -65.72984313	     -5.33317407	     -4.98805534	      4.25901782	    -22.08119306	      9.93612975	      0.52195566
      0.74883333	      6.85301334	     -2.35103868	      2.53247037	     -0.42855673	      1.02814136	      0.30088057	     -2.54503660	      5.22133459	     -1.07213823	    -13.80799850	      9.13037556	     -8.44762045	     -1.06375038	      6.56847876	     -2.80105319	      0.19620151	    -65.44808333	     -4.70240075	     -5.31967185	      4.16992533	    -22.12617032	      9.61059226	      0.65650199
      0.75300000	      6.90656162	     -2.11112295	      2.57488104	     -0.42351785	      1.02902247	      0.30097693	     -3.13781691	      5.01070935	     -1.00823238	    -13.36819724	      9.08943852	     -8.59294887	     -1.13667539	      6.98571140	     -2.55729506	      0.18601365	    -65.08856454	     -4.11400837	     -5.63671583	      3.96352580	    -22.21388618	      9.27831731	      0.90854661
      0.75716667	      6.88992284	     -1.87750545	      2.62773430	     -0.41852690	      1.02976205	      0.30103639	     -3.61349735	      4.79648166	     -1.02464906	    -13.00912890	      9.05849225	     -8.65216602	     -1.17323924	      7.48216583	     -2.31108083	      0.19094169	    -64.69910290	     -3.45316159	     -5.92342084	      3.87303138	    -22.22777452	      8.95135401	      0.97700009
      0.76133333	      6.94770281	     -1.62774677	      2.66987113	     -0.41350225	      1.03062184	      0.30108624	     -4.20490609	      4.57017480	     -0.99363843	    -12.58015199	      9.01052486	     -8.77115590	     -1.24228381	      7.86031242	     -2.04579221	      0.18877287	    -64.20606860	     -2.86112213	     -6.19756874	      3.68855903	    -22.32167005	      8.62668367	      1.15853136
      0.76550000	      6.89549480	     -1.41372054	      2.67467824	     -0.40849424	      1.03127947	      0.30123461	     -4.65922364	      4.38458380	     -0.87696972	    -12.17893707	      8.89579400	     -8.98978995	     -2.12963544	      8.35866671	     -1.83768100	      0.13000278	    -63.70144530	     -2.13177283	     -6.34558668	      1.09549579	    -22.28753190	      8.30119471	      1.33279912
      0.76966667	      6.94397573	     -1.16123385	      2.76258032	     -0.40351900	      1.03203953	      0.30117270	     -5.21028143	      4.14700053	     -0.99273259	    -11.81330286	      8.90561211	     -8.97144545	     -2.15317398	      8.73223244	     -1.55001686	      0.18424330	    -63.10889271	     -1.53360232	     -6.61949876	      1.06610493	    -22.37986571	      7.99385419	      1.38574690
      0.77383333	      6.91126163	     -0.92656807	      2.80603586	     -0.39854730	      1.03267110	      0.30116939	     -5.65762709	      3.92513010	     -1.02984516	    -11.47565201	      8.86473440	     -8.99627123	     -2.16791710	      9.17789862	     -1.28825721	      0.18985831	    -62.47031857	     -0.89831241	     -6.84270646	      1.05388579	    -22.38016148	      7.69754003	      1.42773659
      0.77800000	      6.96623641	     -0.67459439	      2.85308471	     -0.39354837	      1.03340264	      0.30116747	     -6.22941563	      3.69299090	     -1.06017020	    -11.07899685	      8.80559545	     -9.09386117	     -2.19961559	      9.49543765	     -1.01475699	      0.19350023	    -61.74000842	     -0.33606002	     -7.01098885	      1.00308952	    -22.46405640	      7.37344142	      1.56275624
      0.78216667	      6.99384801	     -0.44673862	      2.89857526	     -0.38858563	      1.03405770	      0.30116648	     -6.76969094	      3.48841482	     -1.05687259	    -10.67914962	      8.73233219	     -9.18351625	     -2.24218028	      9.83753758	     -0.76530679	      0.20057666	    -60.97456595	      0.23871231	     -7.17935396	      0.92039586	    -22.55113539	      7.06029019	      1.68431593
      0.78633333	      6.98696886	     -0.22513349	      2.94898897	     -0.38361377	      1.03462689	      0.30111265	     -7.24974944	      3.28337351	     -1.10908361	    -10.32938609	      8.65228039	     -9.26445915	     -2.27509761	     10.19996300	     -0.51310039	      0.22083176	    -60.15501137	      0.81099738	     -7.30597896	      0.85608961	    -22.56306161	      6.79038455	      1.75538354
      0.79050000	      7.03070221	     -0.01068796	      3.00262388	     -0.37865301	      1.03523891	      0.30107451	     -7.80930100	      3.09493209	     -1.11681052	     -9.92514942	      8.56420554	     -9.35958725	     -2.32360746	     10.48874413	     -0.27396097	      0.24403646	    -59.27365187	      1.34009212	     -7.43683343	      0.74224071	    -22.66344725	      6.50087619	      1.85106020
      0.79466667	      7.03305395	      0.19535665	      3.05841873	     -0.37369321	      1.03574792	      0.30100446	     -8.30791735	      2.91092233	     -1.15095294	     -9.55451248	      8.47391384	     -9.45359440	     -2.37172423	     10.80776262	     -0.03661924	      0.27763625	    -58.34511664	      1.85536873	     -7.52788538	      0.62088254	    -22.70145447	      6.23461575	      1.92770642
      0.79883333	      7.03857274	      0.37403417	      3.10430167	     -0.36874165	      1.03622123	      0.30095931	     -8.82276865	      2.76321689	     -1.11129951	     -9.14694998	      8.28673477	     -9.69101680	     -2.63482395	     11.10921401	      0.16583049	      0.30396865	    -57.37495418	      2.38654976	     -7.58436082	     -0.19236304	    -22.75265200	      5.98833546	      2.10042642
      0.80300000	      7.05062393	      0.58526273	      3.16783396	     -0.36378178	      1.03668080	      0.30082223	     -9.31720707	      2.56753096	     -1.21414257	     -8.81509883	      8.26375721	     -9.64996010	     -2.66831380	     11.37528346	      0.42266010	      0.36466076	    -56.32521252	      2.81125001	     -7.68089126	     -0.28433916	    -22.79539376	      5.74120327	      2.07028424
      0.80716667	      7.03530895	      0.77631798	      3.22326822	     -0.35883374	      1.03706376	      0.30068008	     -9.76912907	      2.39216793	     -1.29698870	     -8.50283310	      8.16143346	     -9.68825732	     -2.69291643	     11.65484774	      0.66011432	      0.42734041	    -55.23108578	      3.24149236	     -7.74033797	     -0.34394437	    -22.80884723	      5.51003888	      2.10448535
      0.81133333	      7.09461761	      0.95116201	      3.28234285	     -0.35388870	      1.03749367	      0.30055673	    -10.34302664	      2.24758389	     -1.31378511	     -8.09993242	      8.06254282	     -9.77645239	     -2.73643287	     11.83380822	      0.87157241	      0.49482607	    -54.08203463	      3.59770309	     -7.83398460	     -0.47612455	    -22.92607028	      5.29035725	      2.17783732
      0.81550000	      7.07476258	      1.12411332	      3.33936015	     -0.34893336	      1.03779233	      0.30039853	    -10.79265382	      2.09387764	     -1.38344029	     -7.78209325	      7.94469750	     -9.83785905	     -2.76573723	     12.07872635	      1.09364253	      0.57818544	    -52.88232483	      3.94880558	     -7.87484041	     -0.56155508	    -22.92619269	      5.07518336	      2.22312351
